<svg width="102" height="33" viewBox="0 0 102 33" fill="none" xmlns="http://www.w3.org/2000/svg">
<path d="M9.24938 20.9694C9.3947 23.4882 9.3947 26.5884 9.24938 30.2698C6.24616 28.9135 3.92108 26.9759 2.32259 24.5539C0.530346 21.7929 -0.196239 18.5474 0.0459567 14.8176C0.239713 11.9113 1.20849 9.2956 3.04918 6.97052C4.64767 4.93608 6.63367 3.2891 9.10406 2.07812L9.1525 2.12661C9.20094 2.12661 9.20094 2.1751 9.24938 2.1751C9.3947 5.22676 9.3947 8.27842 9.24938 11.3785C7.94153 11.6207 7.02118 11.7175 6.39148 11.5237C6.24616 11.2331 6.14928 10.7004 6.24616 9.92535C6.2946 9.10189 6.2946 8.56903 6.14928 8.32684C5.66489 8.47216 5.13206 9.10189 4.50235 10.1675C3.14606 12.5895 2.66167 15.4473 3.1945 18.7896C3.53357 21.0662 4.50235 22.907 6.0524 24.2633C6.24616 24.0211 6.2946 23.5367 6.24616 22.8101C6.19772 21.8413 6.19772 21.26 6.19772 21.0179C7.26338 20.8241 8.23216 20.8241 9.24938 20.9694Z" fill="white"/>
<path d="M20.1965 14.5784C20.3418 19.9067 20.3418 25.2835 20.1965 30.6118C18.9371 31.1446 17.4355 31.3867 15.6432 31.3867C13.851 31.3867 12.3494 31.1446 11.1384 30.6118C10.9446 28.4804 10.8962 25.235 11.0415 20.7786C11.5744 20.5364 12.5916 20.488 13.9479 20.6818C13.9963 20.8271 13.9963 22.2318 13.9479 24.8959C13.8994 26.9304 13.9479 28.0444 14.0447 28.2382C14.2385 28.5288 14.6745 28.7226 15.401 28.6742C15.9823 28.6742 16.5151 28.5773 16.9995 28.3835C17.2417 25.0897 17.2902 21.5052 17.1449 17.6301C16.5636 17.4363 15.5948 17.4364 14.1901 17.4364C12.6885 17.4848 11.6712 17.4363 11.1384 17.3394C10.9931 9.0563 10.9446 3.67956 11.0415 1.11229C12.2525 0.676338 13.7541 0.434237 15.5948 0.482677C17.3386 0.482677 18.8402 0.724777 20.1481 1.11229C20.2934 4.45459 20.2934 7.79698 20.1481 11.1393C19.1793 11.333 18.259 11.333 17.2902 11.1393C17.1933 10.2189 17.1933 8.95942 17.1933 7.40937C17.1933 5.27805 17.2417 4.01868 17.2417 3.58273C16.9511 3.34054 16.4667 3.19519 15.7886 3.19519C15.1104 3.19519 14.5776 3.24363 14.1416 3.43739C14.0448 4.59993 14.0447 6.39217 14.0447 8.76569C14.0447 11.8174 14.0932 13.6096 14.0932 14.1425C14.4323 14.2878 15.7886 14.3846 18.1621 14.4815L20.1965 14.5784Z" fill="white"/>
<path d="M25.4305 28.2396C24.0258 29.3053 22.9117 29.9835 21.9913 30.1772V2.51856C21.9913 2.42168 22.0882 2.32481 22.1367 2.27637C26.254 4.06861 28.9666 7.12028 30.2744 11.4798C28.9666 11.6251 28.0462 11.6735 27.4165 11.5766C27.1743 11.3829 26.8837 10.8016 26.4477 9.88128C26.1087 9.15469 25.7211 8.67035 25.2367 8.47659C24.9461 12.2548 24.8977 17.5346 25.043 24.2677C25.6243 24.0255 26.254 23.1052 27.029 21.5551C27.6587 20.1989 28.0462 19.0362 28.0462 18.0674C28.0462 17.8737 27.8525 17.7769 27.465 17.7769C26.9806 17.7769 26.7384 17.7768 26.6899 17.7284C26.5446 16.7596 26.5446 15.8393 26.6899 14.8705C28.1431 14.7252 29.5963 14.7252 31.0494 14.8705C31.437 20.441 29.5478 24.8973 25.4305 28.2396Z" fill="white"/>
<path d="M39.0719 0.695312C39.4731 0.695312 39.8241 0.695361 40.125 0.745508C40.4259 0.745508 40.6766 0.795631 40.9273 0.845778C41.1781 0.895925 41.4288 0.946096 41.6795 0.996243L41.5291 2.60092C41.2784 2.60092 41.0276 2.55073 40.7769 2.55073C40.5262 2.55073 40.3256 2.55073 40.0247 2.55073C39.7739 2.55073 39.4731 2.55073 39.0719 2.55073C38.771 2.55073 38.5203 2.60095 38.3197 2.75139C38.1191 2.90183 38.0188 3.10237 37.9185 3.4534C37.8684 3.80442 37.8182 4.25577 37.8182 4.85754C37.8182 5.4593 37.8684 5.96079 37.9185 6.26167C37.9686 6.6127 38.1191 6.81324 38.3197 6.96368C38.5203 7.11412 38.771 7.16434 39.0719 7.16434C39.6235 7.16434 40.125 7.16434 40.5262 7.16434C40.9273 7.16434 41.2783 7.1141 41.6795 7.06395L41.83 8.66875C41.4288 8.81919 41.0276 8.91942 40.6264 8.96956C40.2253 9.01971 39.7238 9.06983 39.0719 9.06983C38.2194 9.06983 37.5173 8.91949 36.9657 8.66875C36.4642 8.41802 36.0631 7.96665 35.8123 7.36488C35.5616 6.76312 35.4613 5.91067 35.4613 4.90773C35.4613 3.85465 35.5616 3.05222 35.8123 2.45046C36.0631 1.84869 36.4141 1.39744 36.9657 1.14671C37.5173 0.845827 38.2194 0.695312 39.0719 0.695312Z" fill="white"/>
<path d="M44.3844 3.10386L44.6352 4.30734L44.8358 4.4578V8.97103H42.6794V3.10386H44.3844ZM47.2428 2.95339L47.0422 4.9092H46.4906C46.2399 4.9092 45.9891 4.90913 45.6883 4.95927C45.3874 5.00942 45.0364 5.10971 44.6352 5.21001L44.4847 4.0566C44.8859 3.70557 45.2871 3.40472 45.6883 3.20413C46.0894 3.00354 46.4906 2.90332 46.8918 2.90332H47.2428V2.95339Z" fill="white"/>
<path d="M50.8058 2.95312C51.8589 2.95312 52.6111 3.10357 53.0624 3.45459C53.5138 3.80562 53.7143 4.30714 53.7143 5.0092C53.7143 5.56082 53.5639 5.96194 53.263 6.21268C52.9621 6.46341 52.4105 6.61388 51.6583 6.61388H48.4489V5.56074H51.0566C51.3073 5.56074 51.5079 5.51062 51.558 5.46047C51.6082 5.36018 51.6583 5.25986 51.6583 5.05927C51.6583 4.80854 51.6082 4.65815 51.4577 4.608C51.3574 4.50771 51.1568 4.50773 50.856 4.50773C50.6052 4.50773 50.3545 4.50771 50.204 4.608C50.0536 4.65815 49.9533 4.80861 49.9032 5.0092C49.853 5.20979 49.8029 5.56077 49.8029 5.96194C49.8029 6.36312 49.853 6.71415 49.9032 6.96488C49.9533 7.21562 50.1038 7.36606 50.2542 7.46635C50.4548 7.56665 50.7055 7.61682 51.0064 7.61682C51.2571 7.61682 51.6082 7.61677 52.0093 7.56662C52.4105 7.56662 52.8618 7.5165 53.3132 7.46635L53.5138 8.77022C53.263 8.92066 52.9621 8.97074 52.6613 9.07103C52.3604 9.12118 52.0595 9.17135 51.7085 9.2215C51.4076 9.27164 51.0565 9.27169 50.7557 9.27169C49.9533 9.27169 49.3516 9.17142 48.8501 8.92069C48.3988 8.7201 48.0477 8.36907 47.8471 7.91775C47.6466 7.46643 47.5463 6.91474 47.5463 6.21268C47.5463 5.46047 47.6466 4.80859 47.8471 4.35726C48.0477 3.90594 48.3988 3.55491 48.8501 3.35433C49.4017 3.05344 50.0035 2.95312 50.8058 2.95312Z" fill="white"/>
<path d="M59.4827 5.4104V6.51361H56.9753C56.7747 6.51361 56.6744 6.56378 56.5741 6.66407C56.4739 6.76437 56.4738 6.86464 56.4738 7.01508V7.21562C56.4738 7.36606 56.524 7.46633 56.6243 7.56662C56.7246 7.66692 56.875 7.66701 57.0756 7.66701C57.2762 7.66701 57.4768 7.61684 57.6774 7.51655C57.878 7.41625 58.1287 7.31598 58.3293 7.16554C58.5299 7.0151 58.7305 6.86466 58.8809 6.66407V7.41628C58.8308 7.56672 58.7305 7.71711 58.58 7.86755C58.4296 8.06814 58.2791 8.26878 58.0786 8.41922C57.878 8.61981 57.6272 8.77025 57.3264 8.92069C57.0255 9.07113 56.6744 9.12123 56.3234 9.12123C55.9724 9.12123 55.6214 9.07113 55.3205 8.92069C55.0196 8.77025 54.7689 8.61976 54.6184 8.36902C54.4178 8.11829 54.3677 7.81738 54.3677 7.46635V6.86461C54.3677 6.41329 54.5181 6.01214 54.8691 5.7614C55.2202 5.51067 55.6715 5.3602 56.2231 5.3602H59.4827V5.4104ZM57.878 2.95312C58.4296 2.95312 58.8308 3.00335 59.2319 3.15379C59.583 3.30423 59.8838 3.55491 60.0844 3.85579C60.285 4.20682 60.3853 4.65812 60.3853 5.20974V8.97076H58.6803L58.3794 7.71709L58.229 7.51655V5.25993C58.229 5.0092 58.1788 4.85876 58.0284 4.75846C57.9281 4.65817 57.7275 4.608 57.4266 4.608C57.1258 4.608 56.7246 4.608 56.2733 4.608C55.8219 4.608 55.3706 4.6582 54.8691 4.6582L54.6686 3.25406C54.9694 3.20391 55.3205 3.15374 55.6715 3.10359C56.0225 3.05344 56.4739 3.00332 56.8249 3.00332C57.2762 2.95317 57.6272 2.95312 57.878 2.95312Z" fill="white"/>
<path d="M65.6975 3.10246V4.4564H61.0338V3.20273L62.1872 3.15265H65.6975V3.10246ZM64.1931 1.54785V6.96375C64.1931 7.11419 64.2432 7.26465 64.3435 7.36495C64.4438 7.46524 64.5942 7.46522 64.7948 7.46522H65.4969L65.7476 8.86936C65.5972 8.9195 65.3966 8.96968 65.196 9.01982C64.9954 9.06997 64.7447 9.06995 64.494 9.12009C64.2432 9.12009 64.0928 9.17029 63.8922 9.17029C63.3406 9.17029 62.8893 9.01977 62.5884 8.71889C62.2875 8.41801 62.0869 8.01688 62.0869 7.51541V1.54785H64.1931Z" fill="white"/>
<path d="M68.0541 0.496094C68.4553 0.496094 68.6559 0.696706 68.6559 1.14803V1.74977C68.6559 2.15094 68.4553 2.4017 68.0541 2.4017H67.1514C66.7503 2.4017 66.5497 2.20109 66.5497 1.74977V1.14803C66.5497 0.746853 66.7503 0.496094 67.1514 0.496094H68.0541ZM68.6559 3.10371V8.97088H66.5497V3.10371H68.6559Z" fill="white"/>
<path d="M76.2259 3.10254L74.4206 8.46824C74.3704 8.61868 74.2701 8.7691 74.1699 8.81924C74.0696 8.91954 73.9191 8.96971 73.7185 8.96971H71.8631C71.7126 8.96971 71.5622 8.91954 71.4619 8.81924C71.3616 8.71895 71.2613 8.61868 71.2112 8.46824L69.4059 3.10254H71.6625L72.515 6.51256C72.5651 6.663 72.6153 6.86351 72.6153 7.0641C72.6654 7.26469 72.6654 7.41518 72.7156 7.61577H72.866C72.9162 7.41518 72.9162 7.26469 72.9663 7.0641C73.0165 6.86351 73.0165 6.71315 73.0666 6.51256L73.9191 3.10254H76.2259Z" fill="white"/>
<path d="M79.6422 2.95312C80.6953 2.95312 81.4475 3.10357 81.8989 3.45459C82.3502 3.80562 82.5508 4.30714 82.5508 5.0092C82.5508 5.56082 82.4003 5.96194 82.0994 6.21268C81.7986 6.46341 81.2469 6.61388 80.4947 6.61388H77.2853V5.56074H79.893C80.1437 5.56074 80.3443 5.51062 80.3944 5.46047C80.4446 5.36018 80.4947 5.25986 80.4947 5.05927C80.4947 4.80854 80.4446 4.65815 80.2941 4.608C80.1939 4.50771 79.9933 4.50773 79.6924 4.50773C79.4417 4.50773 79.1909 4.50771 79.0405 4.608C78.89 4.65815 78.7897 4.80861 78.7396 5.0092C78.6894 5.20979 78.6393 5.56077 78.6393 5.96194C78.6393 6.36312 78.6894 6.71415 78.7396 6.96488C78.7897 7.21562 78.9402 7.36606 79.0906 7.46635C79.2912 7.56665 79.5419 7.61682 79.8428 7.61682C80.0936 7.61682 80.4446 7.61677 80.8458 7.56662C81.2469 7.56662 81.6983 7.5165 82.1496 7.46635L82.3502 8.77022C82.0994 8.92066 81.7986 8.97074 81.4977 9.07103C81.1968 9.12118 80.8959 9.17135 80.5449 9.2215C80.244 9.27164 79.893 9.27169 79.5921 9.27169C78.7897 9.27169 78.188 9.17142 77.6865 8.92069C77.2352 8.7201 76.8842 8.36907 76.6836 7.91775C76.483 7.46643 76.3827 6.91474 76.3827 6.21268C76.3827 5.46047 76.483 4.80859 76.6836 4.35726C76.8842 3.90594 77.2352 3.55491 77.6865 3.35433C78.2883 3.05344 78.89 2.95312 79.6422 2.95312Z" fill="white"/>
<path d="M38.6736 12.4829C39.0747 12.4829 39.5261 12.533 40.0777 12.5832C40.5791 12.6333 41.0806 12.7337 41.5319 12.8841L41.3815 14.3383C41.0305 14.3383 40.6293 14.3383 40.1278 14.3383C39.6264 14.3383 39.1249 14.3383 38.6736 14.3383C38.473 14.3383 38.3225 14.3383 38.2222 14.3383C38.1219 14.3383 38.0217 14.3885 37.9214 14.3885C37.8712 14.4387 37.7709 14.4888 37.7709 14.539C37.7208 14.5891 37.7208 14.6894 37.7208 14.8398C37.7208 15.0404 37.7709 15.1909 37.8712 15.2912C37.9715 15.3915 38.1721 15.4917 38.473 15.592L39.9774 16.1437C40.6293 16.3944 41.0806 16.7454 41.3815 17.0964C41.6322 17.4976 41.7827 17.9489 41.7827 18.6008C41.7827 19.0521 41.7325 19.4533 41.6322 19.7542C41.5319 20.0551 41.3314 20.3058 41.0806 20.5064C40.8299 20.707 40.529 20.8073 40.0777 20.9076C39.6765 21.0079 39.175 21.0581 38.5733 21.0581C38.3225 21.0581 37.8712 21.058 37.3697 21.0079C36.8181 20.9577 36.2164 20.8575 35.5645 20.7071L35.7149 19.1525C36.1662 19.1525 36.6175 19.1525 36.9686 19.2027C37.3196 19.2027 37.6706 19.2027 37.9214 19.2027C38.1721 19.2027 38.4228 19.2027 38.5733 19.2027C38.824 19.2027 39.0246 19.2026 39.175 19.1525C39.3255 19.1023 39.4258 19.0522 39.4759 19.002C39.5261 18.9519 39.5762 18.8015 39.5762 18.7012C39.5762 18.5508 39.5762 18.4504 39.5261 18.4003C39.4759 18.3 39.4258 18.2499 39.3255 18.1997C39.2252 18.1496 39.0747 18.0994 38.9243 18.0493L37.3196 17.3973C36.6677 17.1466 36.2164 16.7956 35.9656 16.4446C35.7149 16.0936 35.5645 15.592 35.5645 14.9903C35.5645 14.5389 35.6146 14.1377 35.765 13.8369C35.8653 13.536 36.0659 13.2853 36.3167 13.1348C36.5674 12.9844 36.8683 12.834 37.3196 12.7838C37.6205 12.5331 38.1219 12.4829 38.6736 12.4829Z" fill="white"/>
<path d="M44.285 12.2788C44.6862 12.2788 44.8868 12.4794 44.8868 12.9307V13.5325C44.8868 13.9337 44.6862 14.1844 44.285 14.1844H43.3824C42.9812 14.1844 42.7806 13.9838 42.7806 13.5325V12.9307C42.7806 12.5296 42.9812 12.2788 43.3824 12.2788H44.285ZM44.8868 14.9366V20.8038H42.7305V14.9366H44.8868Z" fill="white"/>
<path d="M47.0952 18.1483L48.0981 18.3488C47.9978 18.399 47.9477 18.4491 47.8975 18.5996C47.8474 18.6999 47.8474 18.8003 47.9477 18.9507C47.9978 19.051 48.1482 19.1011 48.3488 19.1512L50.5052 19.3518C51.1571 19.4019 51.6084 19.6025 51.9093 19.8532C52.16 20.1541 52.3104 20.5554 52.3104 21.1571C52.3104 21.7087 52.2101 22.1099 51.9594 22.3606C51.7588 22.6615 51.4078 22.812 50.9063 22.9123C50.455 23.0126 49.8031 23.0627 49.0007 23.0627C48.3488 23.0627 47.7972 23.0126 47.3459 22.9625C46.9447 22.9123 46.5937 22.812 46.343 22.6615C46.0922 22.5111 45.9418 22.3606 45.8415 22.1601C45.7412 21.9595 45.691 21.6585 45.691 21.3577C45.691 21.1069 45.7412 20.9064 45.8415 20.7058C45.9418 20.5053 46.0922 20.3548 46.343 20.2044C46.5937 20.0539 46.8946 19.9536 47.3459 19.8032L48.2987 19.5524L49.0509 19.8032L48.6497 20.0539C48.4491 20.2043 48.2485 20.3548 48.1482 20.4049C47.9978 20.5052 47.9477 20.5554 47.8975 20.6556C47.8474 20.7058 47.7972 20.8563 47.7972 20.9566C47.7972 21.0569 47.8474 21.2072 47.8975 21.2574C47.9477 21.3075 48.0981 21.4079 48.2485 21.4079C48.4491 21.458 48.6497 21.458 48.9506 21.458C49.3016 21.458 49.5524 21.458 49.7529 21.4079C49.9535 21.3577 50.0538 21.3577 50.1541 21.2574C50.2043 21.2072 50.2544 21.107 50.2544 20.9566C50.2544 20.8061 50.2043 20.756 50.1541 20.7058C50.104 20.6557 50.0037 20.6055 49.8532 20.6055C49.7028 20.5553 49.5524 20.5553 49.3016 20.5052L47.5966 20.3547C47.2957 20.3046 46.9949 20.2544 46.8444 20.104C46.6438 19.9535 46.5435 19.8031 46.4432 19.6025C46.3931 19.4019 46.343 19.2014 46.3931 19.0008C46.4432 18.8002 46.4934 18.5997 46.6438 18.4492C46.694 18.2988 46.8946 18.1984 47.0952 18.1483ZM48.9005 14.7383C49.6025 14.7383 50.2043 14.7885 50.6054 14.9389C51.0066 15.0894 51.3075 15.2398 51.5081 15.5407C51.7087 15.7914 51.809 16.1926 51.809 16.6439C51.809 17.0952 51.7087 17.4462 51.5582 17.7471C51.3577 17.9978 51.0568 18.1984 50.6556 18.3488C50.2043 18.4491 49.6527 18.5495 48.9506 18.5495C48.2485 18.5495 47.6969 18.4993 47.2456 18.3488C46.7943 18.2485 46.4934 18.048 46.343 17.7471C46.1424 17.4964 46.0421 17.0952 46.0421 16.6439C46.0421 16.1926 46.1424 15.8416 46.343 15.5407C46.5435 15.2899 46.8444 15.0894 47.2957 14.9389C47.6468 14.8386 48.1984 14.7383 48.9005 14.7383ZM48.9005 15.992C48.5494 15.992 48.2987 16.0421 48.1984 16.1424C48.0479 16.2427 47.9978 16.3932 47.9978 16.6439C47.9978 16.8946 48.0479 17.0451 48.1984 17.1454C48.3488 17.2457 48.5494 17.2958 48.9005 17.2958C49.2515 17.2958 49.5022 17.2457 49.6527 17.1454C49.8031 17.0451 49.8532 16.8946 49.8532 16.6439C49.8532 16.3932 49.8031 16.2427 49.6527 16.1424C49.5022 16.0421 49.2515 15.992 48.9005 15.992ZM52.4609 14.9389L52.3606 15.7412L50.7559 15.992L50.3046 14.9389H52.4609Z" fill="white"/>
<path d="M55.3242 12.5331V14.3885C55.3242 14.7395 55.3242 15.0404 55.274 15.3413C55.2239 15.6421 55.1737 15.8929 55.1236 16.0935L55.3242 16.2439V20.7572H53.1678V12.4829H55.3242V12.5331ZM57.5306 14.7395C58.684 14.7395 59.2356 15.2912 59.2356 16.3944V20.7572H57.0793V17.0463C57.0793 16.8457 57.0292 16.7454 56.979 16.6451C56.9289 16.595 56.7784 16.5449 56.5778 16.5449C56.3773 16.5449 56.1767 16.595 55.9259 16.6451C55.7253 16.6953 55.4245 16.7956 55.0734 16.9461L54.8728 15.9431C55.274 15.5419 55.7253 15.241 56.1767 15.0405C56.628 14.8399 57.0793 14.7395 57.5306 14.7395Z" fill="white"/>
<path d="M64.5995 14.9383V16.2922H59.9358V15.0386L61.0892 14.9884H64.5995V14.9383ZM63.0951 13.3335V18.7494C63.0951 18.8998 63.1452 19.0503 63.2455 19.1506C63.3458 19.2509 63.4962 19.2509 63.6968 19.2509H64.3989L64.6496 20.655C64.4992 20.7051 64.2986 20.7553 64.098 20.8055C63.8974 20.8556 63.6467 20.8556 63.3959 20.9057C63.1452 20.9057 62.9948 20.9559 62.7942 20.9559C62.2426 20.9559 61.7912 20.8054 61.4903 20.5045C61.1895 20.2037 60.9889 19.8025 60.9889 19.3011V13.3335H63.0951Z" fill="white"/>
<path d="M71.4703 12.4829C71.8715 12.4829 72.2225 12.483 72.5234 12.5331C72.8243 12.5331 73.1252 12.5832 73.3759 12.6334C73.6266 12.6835 73.9275 12.7336 74.1783 12.8339L74.0278 14.4387C73.7269 14.4387 73.4762 14.4387 73.2255 14.4387C72.9747 14.4387 72.6739 14.4387 72.4231 14.4387C72.1724 14.4387 71.8213 14.4387 71.5205 14.4387C71.2697 14.4387 71.019 14.4888 70.8184 14.539C70.6178 14.5891 70.4674 14.7395 70.3671 14.89C70.2668 15.0404 70.1665 15.2911 70.1164 15.592C70.0662 15.8929 70.0662 16.2941 70.0662 16.7956C70.0662 17.3974 70.1164 17.8487 70.1665 18.1997C70.2166 18.5508 70.3671 18.7513 70.5175 18.9017C70.668 19.0522 70.9187 19.1023 71.2196 19.1023C71.4202 19.1023 71.6208 19.1024 71.7712 19.0522C71.9216 19.0021 72.0721 19.0021 72.2225 18.9519C72.373 18.9018 72.4733 18.8516 72.5736 18.8015L72.7741 19.7542C72.6738 19.9047 72.5234 20.1052 72.2727 20.2557C72.0721 20.4563 71.7712 20.6067 71.4202 20.7572C71.0692 20.9076 70.7181 20.9578 70.2668 20.9578C69.665 20.9578 69.1636 20.8073 68.7624 20.5064C68.3612 20.2055 68.0603 19.7542 67.9099 19.1525C67.7093 18.5507 67.609 17.6983 67.609 16.6953C67.609 15.6422 67.7093 14.7897 67.96 14.188C68.2108 13.5862 68.6119 13.1348 69.1636 12.8841C69.8656 12.6334 70.5677 12.4829 71.4703 12.4829ZM74.5794 16.0935V20.7572H72.9747L72.6739 19.5035L72.4733 19.1023V16.0434H74.5794V16.0935Z" fill="white"/>
<path d="M77.3367 14.9373L77.5874 16.1407L77.788 16.2912V20.8044H75.6317V14.9373H77.3367ZM80.1951 14.7366L79.9945 16.6924H79.4429C79.1922 16.6924 78.9414 16.6923 78.6405 16.7425C78.3397 16.7926 77.9886 16.8929 77.5874 16.9932L77.437 15.8398C77.8382 15.4888 78.2394 15.1879 78.6405 14.9873C79.0417 14.7867 79.4429 14.6865 79.8441 14.6865H80.1951V14.7366Z" fill="white"/>
<path d="M83.7547 14.7383C84.5069 14.7383 85.1588 14.8386 85.6102 15.0392C86.0615 15.2398 86.4125 15.5908 86.6131 16.0422C86.8137 16.4935 86.914 17.0952 86.914 17.8474C86.914 18.5996 86.8137 19.2014 86.6131 19.6527C86.4125 20.104 86.0615 20.4049 85.6102 20.6055C85.1588 20.806 84.5069 20.9064 83.7547 20.9064C83.0025 20.9064 82.3506 20.806 81.8993 20.6055C81.448 20.4049 81.0969 20.104 80.8963 19.6527C80.6958 19.2014 80.5955 18.5996 80.5955 17.8474C80.5955 17.0952 80.6958 16.4935 80.8963 16.0422C81.0969 15.5908 81.448 15.2398 81.8993 15.0392C82.3506 14.8386 82.9524 14.7383 83.7547 14.7383ZM83.7547 16.2427C83.504 16.2427 83.3034 16.2929 83.2031 16.3932C83.0527 16.4934 83.0025 16.6438 82.9022 16.8444C82.8521 17.0952 82.8019 17.396 82.8019 17.8474C82.8019 18.2987 82.8521 18.5996 82.9022 18.8503C82.9524 19.101 83.0527 19.2516 83.2031 19.3017C83.3535 19.402 83.504 19.402 83.7547 19.402C84.0054 19.402 84.206 19.3519 84.3063 19.3017C84.4568 19.2014 84.5571 19.0509 84.6072 18.8503C84.6574 18.5996 84.7075 18.2987 84.7075 17.8474C84.7075 17.396 84.6574 17.0952 84.6072 16.8444C84.5571 16.5937 84.4568 16.4433 84.3063 16.3932C84.1559 16.2929 84.0054 16.2427 83.7547 16.2427Z" fill="white"/>
<path d="M89.9699 14.9354V18.6463C89.9699 18.8469 90.0201 18.9472 90.0702 19.0475C90.1705 19.1478 90.321 19.1477 90.4714 19.1477C90.672 19.1477 90.8726 19.0976 91.0732 19.0475C91.2737 18.9973 91.5245 18.897 91.8254 18.7465L91.9758 19.8498C91.5746 20.2008 91.1734 20.5017 90.7723 20.6522C90.3711 20.8527 89.9699 20.9029 89.5186 20.9029C88.3652 20.9029 87.8136 20.3512 87.8136 19.248V14.8853H89.9699V14.9354ZM93.8312 14.9354V20.8026H92.1262L91.8755 19.599L91.6749 19.4487V14.8853H93.8312V14.9354Z" fill="white"/>
<path d="M96.7409 14.9386L96.9414 15.9415L97.142 16.142V20.0033L97.0919 20.1538C97.0919 20.4045 97.142 20.6553 97.142 20.9562C97.142 21.2571 97.142 21.5077 97.142 21.7585V23.0623H94.9857V15.0388H96.7409V14.9386ZM99.1479 14.7881C99.9001 14.7881 100.452 15.0387 100.753 15.5904C101.054 16.142 101.254 16.8942 101.254 17.8972C101.254 18.6995 101.154 19.3013 101.003 19.7526C100.853 20.2039 100.602 20.5048 100.251 20.6553C99.9001 20.8558 99.4989 20.906 99.0476 20.906C98.5963 20.906 98.1951 20.8559 97.8441 20.7055C97.4429 20.555 97.142 20.3544 96.8913 20.0535L97.0417 19.1508C97.2423 19.201 97.4429 19.2511 97.5934 19.3514C97.7939 19.4015 97.9945 19.4518 98.2453 19.4518C98.4459 19.4518 98.5963 19.4015 98.7467 19.3514C98.847 19.3012 98.9473 19.1508 98.9975 18.9001C99.0476 18.6995 99.0978 18.3485 99.0978 17.8972C99.0978 17.4459 99.0476 17.0948 98.9975 16.8942C98.9473 16.6435 98.847 16.4931 98.7467 16.443C98.6464 16.3928 98.496 16.3426 98.2954 16.3426C98.0447 16.3426 97.8441 16.3928 97.6937 16.443C97.5432 16.4931 97.3426 16.5933 97.142 16.7438L96.8411 15.8913C96.9916 15.6907 97.142 15.4901 97.3928 15.3396C97.6435 15.1892 97.8942 15.0388 98.1951 14.9386C98.496 14.8383 98.7969 14.7881 99.1479 14.7881Z" fill="white"/>
</svg>
