<svg width="33" height="32" viewBox="0 0 33 32" fill="none" xmlns="http://www.w3.org/2000/svg">
<path d="M16.0244 1.08203C16.1741 0.621373 16.8259 0.621378 16.9756 1.08203L20.1777 10.9375C20.3785 11.5555 20.9547 11.9746 21.6045 11.9746H31.9678C32.4521 11.9746 32.6536 12.5942 32.2617 12.8789L23.8779 18.9697C23.3522 19.3517 23.1322 20.0294 23.333 20.6475L26.5352 30.5029C26.6848 30.9636 26.1575 31.3472 25.7656 31.0625L17.3818 24.9707C16.8561 24.5887 16.1439 24.5887 15.6182 24.9707L7.23438 31.0625C6.84252 31.3472 6.31517 30.9636 6.46484 30.5029L9.66699 20.6475C9.8678 20.0294 9.6478 19.3517 9.12207 18.9697L0.738281 12.8789C0.346423 12.5942 0.547866 11.9746 1.03223 11.9746H11.3955C12.0453 11.9746 12.6215 11.5555 12.8223 10.9375L16.0244 1.08203Z" fill="#797878" stroke="#797878"/>
</svg>
